# xmcd
#
# Track frame offsets:
#	150
#	15275
#	32202
#	49815
#	67795
#	85685
#	103015
#	119485
#	136405
#	150180
#	166375
#	180497
#	195872
#	213887
#	227380
#	240805
#	255267
#	275585
#	289330
#	304572
#
# Disc length: 4207
#
# Revision: 1
# Processed by: cddbd v1.5.1PL0 Copyright (c) Steve Scherf et al.
# Submitted via: VisiTrax 2.9.5.180 - For more info visit www.synapsa.com
# Normalized: r0:DSETVAR1
#
DISCID=ef106d14
DTITLE=Various Artist - CDX 289 April 2002
DYEAR=2002
DGENRE=
TTITLE0=Pinkmonkey - Barbed wire and roses
TTITLE1=Sawyer Brown - Can you hear me now
TTITLE2=Clark Family Experience - Going away
TTITLE3=Kenny Rogers - Harder cards
TTITLE4=Anthony Smith - If that ain't country
TTITLE5=Mike Walker - If there's a chance to say I love you
TTITLE6=Cyndi Thomson - I'm gone
TTITLE7=Sixwire - Look at me now
TTITLE8=Brooks and Dunn - My heart is lost to you
TTITLE9=Eddy Raven and Buckwheat Zydeco - New Orleans is a Mighty good town
TTITLE10=Marie Sisters - Real bad mood
TTITLE11=Hank Williams jr/BGV's by Kid Rock - The F Word
TTITLE12=Nickel Creek - The lighthouse's tale
TTITLE13=Stevens Sisters - Wherever you are
TTITLE14=Joe Olds - Not tonight I have a heartache
TTITLE15=Freddy Lovvorn - Town of fewer people
TTITLE16=Ray Stevens - Deerslayer
TTITLE17=Ray Stevens - Freudian slip
TTITLE18=Ray Stevens - Hello mama
TTITLE19=Izak and West - Everything was fine till mama got a mustang
EXTD=
EXTT0=
EXTT1=
EXTT2=
EXTT3=
EXTT4=
EXTT5=
EXTT6=
EXTT7=
EXTT8=
EXTT9=
EXTT10=
EXTT11=
EXTT12=
EXTT13=
EXTT14=
EXTT15=
EXTT16=
EXTT17=
EXTT18=
EXTT19=
PLAYORDER=
